<svg xmlns="http://www.w3.org/2000/svg" viewBox="0 0 36 36">
<path fill="#ed2024" d="M32 5H4C1.791 5 0 6.791 0 9v4.5h36V9c0-2.209-1.791-4-4-4z"/>
<path fill="#278e43" d="M0 27c0 2.209 1.791 4 4 4h28c2.209 0 4-1.791 4-4v-4.5H0V27z"/>
<path fill="#fff" d="M0 13.5h36v9H0z"/>
<g fill="#febd11">
<path d="m18.00001,25l0.51464,-3.61316l1.55428,3.30063l-0.57092,-3.60463l2.45644,2.69487l-1.60622,-3.27586l3.13993,1.84988l-2.49816,-2.65611l3.54439,0.84009l-3.16849,-1.80007l3.63413,-0.24412l-3.55713,-0.78441l3.40075,-1.30665l-3.62979,0.3012l2.86538,-2.25279l-3.38003,1.35981l2.07536,-2.99942l-2.82968,2.29797l1.10082,-3.47928l-2.02804,3.03174l0.02856,-3.64967l-1.04622,3.4962l-1.04622,-3.49606l0.02856,3.64967l-2.02804,-3.0316l1.10082,3.47914l-2.82968,-2.29811l2.07536,2.99942l-3.38003,-1.35995l2.86538,2.25307l-3.62979,-0.3012l3.40075,1.30665l-3.55713,0.78427l3.63413,0.24412l-3.16849,1.80021l3.54439,-0.84009l-2.49802,2.65597l3.13993,-1.84974l-1.60622,3.27572l2.4563,-2.69487l-0.5712,3.60463l1.5547,-3.30063l0.5145,3.61316z"/>
</g>
</svg>